<?xml version="1.0" standalone="no"?>
<!DOCTYPE svg PUBLIC "-//W3C//DTD SVG 20010904//EN"
 "http://www.w3.org/TR/2001/REC-SVG-20010904/DTD/svg10.dtd">
<svg version="1.0" xmlns="http://www.w3.org/2000/svg"
 width="2800.000000pt" height="1600.000000pt" viewBox="0 0 2800.000000 1600.000000"
 preserveAspectRatio="xMidYMid meet">
<metadata>
Created by potrace 1.15, written by Peter Selinger 2001-2017
</metadata>
<g transform="translate(0.000000,1600.000000) scale(0.100000,-0.100000)"
fill="#000000" stroke="none">
<path d="M13670 14540 c-920 -51 -1779 -275 -2588 -675 -918 -453 -1721 -1119
-2342 -1940 -1340 -1774 -1692 -4118 -933 -6210 568 -1567 1712 -2862 3198
-3621 1626 -831 3525 -949 5240 -327 1567 568 2862 1712 3621 3198 830 1625
949 3526 328 5238 -843 2322 -2909 3976 -5359 4292 -335 43 -847 63 -1165 45z
m775 -120 c1425 -103 2710 -634 3805 -1574 135 -116 520 -501 636 -636 940
-1096 1471 -2380 1574 -3805 13 -180 13 -710 0 -890 -63 -873 -283 -1681 -666
-2447 -983 -1963 -2897 -3302 -5064 -3542 -455 -51 -1005 -51 -1460 0 -1896
210 -3615 1265 -4675 2869 -607 918 -961 1948 -1050 3058 -17 218 -20 740 -5
952 103 1425 634 2709 1574 3805 116 135 501 520 636 636 1089 934 2376 1469
3785 1573 162 12 748 12 910 1z"/>
<path d="M9702 10900 c-106 -38 -195 -126 -245 -241 -44 -101 -52 -147 -51
-299 0 -127 4 -156 27 -233 86 -282 273 -496 507 -582 60 -22 93 -28 162 -28
l88 0 180 -343 c99 -189 180 -347 180 -351 0 -6 -306 -756 -314 -770 -1 -1
-141 -7 -311 -13 -466 -17 -459 -31 28 -49 131 -5 241 -11 243 -14 3 -3 -71
-191 -165 -418 -94 -227 -170 -414 -168 -415 1 -2 99 182 216 409 117 227 216
415 220 419 3 4 164 2 358 -4 l351 -12 258 -492 c142 -271 260 -492 261 -490
2 1 -89 215 -202 475 -112 260 -207 481 -210 492 -6 18 -1 19 67 19 40 0 147
7 238 15 224 21 279 30 264 45 -14 13 -270 40 -456 49 -92 4 -170 10 -173 13
-10 9 -315 722 -315 735 0 12 265 530 280 546 4 5 27 3 51 -3 63 -18 203 -15
279 5 103 27 196 81 276 160 114 113 170 237 181 395 11 176 -49 332 -176 459
-123 124 -262 183 -431 183 -168 0 -307 -58 -431 -182 -58 -57 -85 -94 -113
-152 -114 -238 -77 -496 99 -686 l67 -72 -90 -216 c-73 -177 -92 -213 -100
-198 -5 10 -63 142 -128 293 -116 269 -117 274 -101 300 41 64 79 154 93 222
18 84 14 240 -9 324 -14 49 -14 47 -9 -60 5 -129 -7 -206 -47 -290 -57 -122
-143 -186 -250 -186 -79 -1 -127 14 -197 59 -240 155 -416 540 -376 822 26
184 127 290 278 290 153 0 313 -95 443 -265 35 -46 13 -7 -34 60 -59 84 -178
194 -254 234 -119 63 -238 77 -339 41z m1623 -464 c134 -35 259 -137 319 -259
94 -192 62 -404 -84 -561 -98 -104 -217 -156 -360 -156 -369 0 -608 383 -445
715 58 120 198 235 321 264 59 14 193 12 249 -3z m-526 -2080 c78 -148 141
-272 141 -276 0 -4 -116 -11 -257 -14 -142 -3 -277 -8 -301 -11 -24 -3 -42 -1
-40 3 40 91 302 581 308 575 4 -4 71 -129 149 -277z"/>
<path d="M16244 9266 c-14 -22 -14 -32 -1 -103 26 -138 36 -206 47 -318 26
-268 32 -315 50 -400 11 -49 22 -102 24 -116 6 -26 -19 -73 -33 -65 -4 3 -79
-26 -167 -63 -87 -38 -161 -66 -164 -64 -3 3 -6 170 -6 371 -2 462 -9 545 -52
595 -20 23 -34 22 -61 -7 -19 -20 -22 -32 -17 -58 25 -133 38 -332 41 -619 2
-174 0 -320 -3 -326 -12 -18 -137 -79 -186 -92 -27 -7 -65 -19 -85 -28 -20 -9
-40 -15 -44 -14 -4 1 -18 -4 -30 -10 -12 -7 -51 -16 -87 -21 -137 -19 -140
-19 -160 -48 -27 -37 -25 -56 6 -76 22 -15 33 -16 97 -5 82 14 194 48 202 61
3 5 38 19 78 31 40 11 100 35 135 51 34 17 65 28 68 25 4 -3 6 -117 6 -253 0
-193 4 -262 17 -317 18 -80 41 -104 66 -72 14 17 15 40 9 155 -8 161 -11 509
-4 519 10 14 131 80 212 116 45 20 101 46 124 56 22 10 43 19 46 19 3 0 8 -15
11 -32 4 -18 11 -60 17 -93 6 -33 15 -118 21 -190 13 -177 24 -279 32 -292 4
-6 9 -40 12 -75 2 -35 12 -84 20 -108 15 -42 41 -206 42 -262 1 -35 39 -88 64
-88 28 0 34 24 21 83 -26 122 -72 397 -72 429 0 20 -6 51 -14 69 -8 19 -21 97
-30 174 -9 77 -23 176 -31 220 -28 156 -28 165 9 199 34 32 140 89 280 151 78
35 79 35 72 67 -3 18 -10 36 -15 41 -11 11 -85 -19 -138 -55 -23 -15 -48 -28
-55 -28 -27 0 -89 -27 -101 -44 -8 -10 -30 -20 -49 -22 -32 -4 -37 -1 -43 23
-11 44 -35 269 -40 373 -5 131 -13 219 -21 232 -4 5 -8 62 -11 126 -5 140 -26
202 -67 202 -16 0 -32 -9 -42 -24z"/>
<path d="M18393 9138 c-23 -29 -33 -61 -72 -225 -49 -208 -78 -379 -87 -520
-8 -117 -7 -116 -95 -127 -139 -16 -167 -21 -194 -36 -34 -19 -45 -59 -21 -79
12 -10 42 -7 149 13 74 14 137 26 141 26 3 0 6 -62 6 -137 -1 -151 10 -250 40
-361 78 -284 275 -419 491 -337 73 28 179 114 179 146 0 25 -22 24 -38 -1 -15
-25 -69 -52 -155 -79 -67 -20 -71 -20 -176 3 -8 1 -17 8 -19 14 -2 7 -10 12
-17 12 -25 0 -113 96 -144 157 -17 34 -31 69 -31 76 0 8 -9 36 -21 62 -17 39
-22 79 -29 219 -5 94 -6 189 -2 210 7 36 11 40 62 58 30 11 83 24 118 29 34 6
99 24 145 40 108 40 178 59 271 74 52 8 97 27 93 38 -2 7 -15 11 -28 9 -13 -2
-44 -3 -69 -3 -25 0 -99 -12 -165 -28 -142 -34 -313 -69 -373 -76 l-44 -5 7
87 c4 49 6 102 6 120 -1 18 8 76 19 129 11 53 20 110 20 126 0 35 40 179 76
277 14 39 24 78 20 86 -7 18 -50 20 -63 3z"/>
<path d="M12423 8966 c-36 -30 -71 -110 -116 -261 -45 -153 -57 -206 -57 -255
0 -21 -5 -42 -11 -45 -6 -4 -8 -14 -4 -24 3 -9 -2 -85 -11 -168 l-17 -153 -56
-16 c-90 -26 -173 -79 -275 -175 -145 -138 -276 -326 -276 -398 0 -21 10 -38
35 -59 91 -80 207 -40 378 131 99 99 197 212 197 226 0 6 4 11 9 11 5 0 12
-21 16 -47 10 -68 52 -197 89 -272 75 -155 258 -287 375 -270 45 7 34 27 -21
38 -29 7 -70 23 -90 36 -21 14 -42 25 -48 25 -5 0 -10 4 -10 8 0 5 -19 29 -42
54 -48 51 -117 167 -156 261 -23 53 -26 77 -27 167 0 91 3 109 21 135 69 97
164 278 164 311 0 7 3 14 8 16 12 5 50 127 61 198 6 36 16 94 23 130 14 78 22
261 13 308 -3 18 -22 51 -42 73 -43 47 -85 52 -130 15z m105 -108 c34 -71 5
-422 -43 -523 -13 -27 -37 -81 -55 -120 -32 -72 -107 -195 -119 -195 -21 1
-27 25 -29 106 -3 90 20 316 38 384 5 19 16 69 24 111 8 42 24 94 35 115 12
21 21 43 21 49 0 5 16 32 36 58 40 55 70 60 92 15z m-311 -950 c-7 -54 -17
-70 -125 -191 -116 -130 -238 -226 -307 -242 -5 -1 -18 -5 -28 -10 -10 -4 -27
-1 -41 9 -19 12 -23 21 -18 38 15 48 70 126 148 208 44 47 85 92 90 100 12 20
132 100 150 100 8 0 14 4 14 9 0 10 101 40 114 33 5 -2 6 -27 3 -54z"/>
<path d="M13513 8966 c-36 -30 -71 -110 -116 -261 -45 -153 -57 -206 -57 -255
0 -21 -5 -42 -11 -45 -6 -4 -8 -14 -4 -24 3 -9 -2 -85 -11 -168 l-17 -153 -56
-16 c-90 -26 -173 -79 -275 -175 -145 -138 -276 -326 -276 -398 0 -21 10 -38
35 -59 91 -80 207 -40 378 131 99 99 197 212 197 226 0 6 4 11 9 11 5 0 12
-21 16 -47 10 -68 52 -197 89 -272 75 -155 258 -287 375 -270 45 7 34 27 -21
38 -29 7 -70 23 -90 36 -21 14 -42 25 -48 25 -5 0 -10 4 -10 8 0 5 -19 29 -42
54 -48 51 -117 167 -156 261 -23 53 -26 77 -27 167 0 91 3 109 21 135 69 97
164 278 164 311 0 7 3 14 8 16 12 5 50 127 61 198 6 36 16 94 23 130 14 78 22
261 13 308 -3 18 -22 51 -42 73 -43 47 -85 52 -130 15z m105 -108 c34 -71 5
-422 -43 -523 -13 -27 -37 -81 -55 -120 -32 -72 -107 -195 -119 -195 -21 1
-27 25 -29 106 -3 90 20 316 38 384 5 19 16 69 24 111 8 42 24 94 35 115 12
21 21 43 21 49 0 5 16 32 36 58 40 55 70 60 92 15z m-311 -950 c-7 -54 -17
-70 -125 -191 -116 -130 -238 -226 -307 -242 -5 -1 -18 -5 -28 -10 -10 -4 -27
-1 -41 9 -19 12 -23 21 -18 38 15 48 70 126 148 208 44 47 85 92 90 100 12 20
132 100 150 100 8 0 14 4 14 9 0 10 101 40 114 33 5 -2 6 -27 3 -54z"/>
<path d="M14051 8167 c-100 -77 -229 -386 -217 -516 6 -64 -9 -96 -65 -132
-55 -35 -63 -63 -29 -94 20 -18 22 -18 65 13 l45 31 52 -56 c61 -64 98 -83
163 -83 55 0 105 24 162 77 l42 39 20 -20 21 -20 45 32 45 31 52 -56 c61 -64
98 -83 163 -83 116 0 265 153 265 272 0 26 -4 48 -10 48 -5 0 -10 -4 -10 -9 0
-5 -22 -43 -50 -85 -82 -125 -167 -163 -260 -116 -43 22 -70 54 -70 85 0 11
34 65 75 120 124 164 205 345 205 455 0 59 -22 88 -72 97 -32 5 -44 0 -85 -30
-100 -73 -232 -384 -219 -516 5 -54 -9 -95 -39 -115 -32 -21 -38 -20 -25 3 13
25 13 111 0 111 -5 0 -10 -4 -10 -9 0 -5 -22 -43 -50 -85 -82 -125 -167 -163
-260 -116 -43 22 -70 54 -70 85 0 11 34 65 75 120 124 164 205 345 205 455 0
62 -22 90 -75 96 -34 4 -47 0 -84 -29z m95 -117 c-13 -83 -182 -372 -227 -388
-5 -2 -7 21 -5 55 12 137 78 285 162 363 45 41 48 42 61 24 9 -12 12 -32 9
-54z m550 0 c-13 -83 -182 -372 -227 -388 -5 -2 -7 21 -5 55 12 137 78 285
162 363 45 41 48 42 61 24 9 -12 12 -32 9 -54z"/>
<path d="M16794 7933 c18 -192 18 -207 -8 -361 -14 -85 -26 -167 -26 -182 0
-34 31 -60 73 -60 54 0 149 124 251 328 15 28 30 52 34 52 4 0 8 -66 9 -148 1
-81 6 -159 12 -174 15 -40 54 -62 95 -54 48 9 132 96 177 182 29 58 35 77 31
117 -2 26 -7 47 -11 47 -3 0 -19 -24 -35 -53 -42 -77 -114 -175 -136 -187 -20
-11 -53 -3 -45 10 3 4 -2 26 -9 48 -14 40 -11 102 13 232 11 57 14 209 5 244
-4 18 -13 26 -28 26 -19 0 -30 -16 -65 -92 -110 -240 -186 -381 -229 -429 -58
-64 -66 -53 -46 67 21 129 28 303 14 355 -11 42 -53 99 -73 99 -5 0 -7 -28 -3
-67z"/>
<path d="M17425 7963 c-20 -19 -17 -48 17 -183 23 -94 31 -233 17 -344 -8 -71
0 -106 24 -106 23 1 79 80 84 121 3 21 10 39 14 39 5 0 9 9 9 20 0 10 7 36 16
57 27 62 32 75 49 133 18 63 65 150 90 165 21 13 52 -23 59 -68 40 -275 56
-326 125 -397 58 -61 100 -71 169 -43 48 20 62 43 43 72 -7 11 -17 11 -59 -3
-50 -17 -51 -17 -86 6 -20 13 -36 28 -36 35 0 6 -11 24 -24 40 -26 32 -40 86
-57 223 -12 107 -37 175 -78 214 -33 31 -55 27 -93 -19 -36 -43 -93 -145 -108
-191 -20 -61 -50 -115 -60 -109 -6 4 -10 28 -10 55 0 61 -18 194 -31 238 -11
33 -34 62 -49 62 -5 0 -16 -8 -25 -17z"/>
<path d="M14117 6728 c-16 -41 -613 -1584 -632 -1635 l-24 -63 48 0 48 0 46
118 c25 64 69 177 97 250 l52 132 376 -2 377 -3 95 -247 95 -248 48 0 c26 0
47 3 47 6 0 11 -652 1689 -660 1697 -4 5 -10 2 -13 -5z m181 -672 c89 -231
160 -421 158 -423 -1 -2 -152 -2 -333 -1 l-331 3 79 205 c44 113 118 305 166
428 47 123 89 219 93 215 4 -4 80 -197 168 -427z"/>
<path d="M12127 6693 c-4 -3 -7 -379 -7 -835 l0 -828 50 0 50 0 0 430 0 430
455 0 455 0 0 -430 0 -430 50 0 50 0 0 836 0 835 -47 -3 -48 -3 -3 -352 -2
-353 -455 0 -455 0 0 355 0 355 -43 0 c-24 0 -47 -3 -50 -7z"/>
<path d="M14930 5866 l0 -836 50 0 50 0 -2 833 -3 832 -47 3 -48 3 0 -835z"/>
<path d="M15227 6693 c-4 -3 -7 -379 -7 -835 l0 -828 50 0 50 0 0 415 0 415
89 0 90 0 263 -415 263 -415 58 0 c52 0 57 2 48 18 -5 9 -124 195 -264 412
l-253 395 58 7 c136 16 226 57 297 133 54 59 78 112 93 210 30 192 -57 367
-220 442 -84 39 -186 52 -408 53 -110 0 -204 -3 -207 -7z m536 -122 c84 -33
137 -77 171 -144 26 -51 29 -67 29 -148 -1 -83 -3 -97 -34 -158 -26 -50 -46
-74 -83 -98 -80 -54 -127 -63 -338 -63 l-188 0 0 321 0 322 193 -5 c167 -5
200 -8 250 -27z"/>
<path d="M11524 6110 c-27 -11 -72 -65 -80 -96 -10 -40 6 -95 35 -125 48 -48
114 -55 181 -19 31 17 63 94 56 135 -16 85 -112 138 -192 105z"/>
<path d="M16389 5980 c-48 -14 -78 -41 -95 -86 -21 -56 -9 -106 36 -149 27
-26 39 -30 90 -30 63 0 96 20 126 77 49 95 -54 218 -157 188z"/>
</g>
</svg>
